# xmcd
#
# Track frame offsets: 
#        150
#        21140
#        47559
#        74502
#        94666
#        116978
#        140569
#        166748
#        192939
#        218528
#        237302
#        253422
#        279592
#
# Disc length: 4007 seconds
#
# Revision: 0
# Processed by: cddbd v1.5.2PL0 Copyright (c) Steve Scherf et al.
# Submitted via: ExactAudioCopyFreeDBPlugin 1.0
#
DISCID=c00fa50d
DTITLE=Various Artist - Nhung tinh khuc vuot thoi gian
DYEAR=1900
DGENRE=
TTITLE0=Quang Dung - Em toi 
TTITLE1=Cam Ly - Trang son cuoc
TTITLE2=Cao Minh - Cung dan xua
TTITLE3=Hong Ngoc - Chieu tha huong
TTITLE4=Minh Thuan - Ben dan xuan
TTITLE5=Le Uyen Nhy - Bong chieu xua
TTITLE6=Quang Dung - Suoi mo
TTITLE7=Quang Linh - Tieng dan chai
TTITLE8=Anh Tuyet - Dong song xanh
TTITLE9=Hoai Nam - Bong chieu ta
TTITLE10=May Trang - Xuan hop mat
TTITLE11=Bich Hong - Tieng thoi gian
TTITLE12=Quang Dung - Chuyen ben
EXTD=
EXTT0=
EXTT1=
EXTT2=
EXTT3=
EXTT4=
EXTT5=
EXTT6=
EXTT7=
EXTT8=
EXTT9=
EXTT10=
EXTT11=
EXTT12=
PLAYORDER=
